HIERARCHY
ROOT Hips
{
    OFFSET   0.000000   0.000000   0.000000
    CHANNELS 6 Xposition Yposition Zposition Zrotation Xrotation Yrotation
    JOINT Chest
    {
        OFFSET   0.000000   8.007240   0.000000
        CHANNELS 3 Zrotation Xrotation Yrotation
        JOINT Chest2
        {
            OFFSET   0.000000  22.077100   0.000000
            CHANNELS 3 Zrotation Xrotation Yrotation
            JOINT Neck
            {
                OFFSET   0.000000  23.254800   0.000000
                CHANNELS 3 Zrotation Xrotation Yrotation
                JOINT Head
                {
                    OFFSET   0.000000  14.370000   1.956600
                    CHANNELS 3 Zrotation Xrotation Yrotation
                    End Site
                    {
                        OFFSET   0.000000  19.566000   0.000000
                    }
                }
            }
            JOINT LeftCollar
            {
                OFFSET   3.911900  19.017000  -0.467064
                CHANNELS 3 Zrotation Xrotation Yrotation
                JOINT LeftShoulder
                {
                    OFFSET  10.383700   0.000000   0.000000
                    CHANNELS 3 Zrotation Xrotation Yrotation
                    JOINT LeftElbow
                    {
                        OFFSET  26.662100   0.001476   0.000517
                        CHANNELS 3 Zrotation Xrotation Yrotation
                        JOINT LeftWrist
                        {
                            OFFSET  28.869000  -0.000025  -0.000106
                            CHANNELS 3 Zrotation Xrotation Yrotation
                            JOINT LeftFinger0
                            {
                                OFFSET   2.044660  -2.323460   3.252850
                                CHANNELS 3 Zrotation Xrotation Yrotation
                                JOINT LeftFinger01
                                {
                                    OFFSET   3.088130   0.000000   0.000000
                                    CHANNELS 3 Zrotation Xrotation Yrotation
                                    JOINT LeftFinger02
                                    {
                                        OFFSET   2.639460   0.000000   0.000000
                                        CHANNELS 3 Zrotation Xrotation Yrotation
                                        End Site
                                        {
                                            OFFSET   2.582190   0.000000   0.000000
                                        }
                                    }
                                }
                            }
                            JOINT LeftFinger1
                            {
                                OFFSET   8.364480   0.000000   3.252850
                                CHANNELS 3 Zrotation Xrotation Yrotation
                                JOINT LeftFinger11
                                {
                                    OFFSET   4.646930   0.000000   0.000000
                                    CHANNELS 3 Zrotation Xrotation Yrotation
                                    JOINT LeftFinger12
                                    {
                                        OFFSET   2.323460   0.000000   0.000000
                                        CHANNELS 3 Zrotation Xrotation Yrotation
                                        End Site
                                        {
                                            OFFSET   2.273050   0.000000   0.000000
                                        }
                                    }
                                }
                            }
                            JOINT LeftFinger2
                            {
                                OFFSET   8.364490   0.000015   1.078090
                                CHANNELS 3 Zrotation Xrotation Yrotation
                                JOINT LeftFinger21
                                {
                                    OFFSET   5.111620   0.000000   0.000000
                                    CHANNELS 3 Zrotation Xrotation Yrotation
                                    JOINT LeftFinger22
                                    {
                                        OFFSET   2.788160   0.000016   0.000000
                                        CHANNELS 3 Zrotation Xrotation Yrotation
                                        End Site
                                        {
                                            OFFSET   2.727660   0.000000   0.000000
                                        }
                                    }
                                }
                            }
                            JOINT LeftFinger3
                            {
                                OFFSET   7.899780   0.000017  -1.078090
                                CHANNELS 3 Zrotation Xrotation Yrotation
                                JOINT LeftFinger31
                                {
                                    OFFSET   4.646930   0.000000   0.000000
                                    CHANNELS 3 Zrotation Xrotation Yrotation
                                    JOINT LeftFinger32
                                    {
                                        OFFSET   2.323470   0.000000   0.000000
                                        CHANNELS 3 Zrotation Xrotation Yrotation
                                        End Site
                                        {
                                            OFFSET   2.273050   0.000000   0.000000
                                        }
                                    }
                                }
                            }
                            JOINT LeftFinger4
                            {
                                OFFSET   7.435090   0.000000  -3.252850
                                CHANNELS 3 Zrotation Xrotation Yrotation
                                JOINT LeftFinger41
                                {
                                    OFFSET   3.717550   0.000000   0.000000
                                    CHANNELS 3 Zrotation Xrotation Yrotation
                                    JOINT LeftFinger42
                                    {
                                        OFFSET   1.858770   0.000000   0.000000
                                        CHANNELS 3 Zrotation Xrotation Yrotation
                                        End Site
                                        {
                                            OFFSET   1.818440   0.000000   0.000000
                                        }
                                    }
                                }
                            }
                        }
                    }
                }
            }
            JOINT RightCollar
            {
                OFFSET  -3.911900  19.017000  -0.467063
                CHANNELS 3 Zrotation Xrotation Yrotation
                JOINT RightShoulder
                {
                    OFFSET -10.383700   0.000019   0.000000
                    CHANNELS 3 Zrotation Xrotation Yrotation
                    JOINT RightElbow
                    {
                        OFFSET -26.662100   0.001175   0.000102
                        CHANNELS 3 Zrotation Xrotation Yrotation
                        JOINT RightWrist
                        {
                            OFFSET -28.869000   0.000016  -0.000079
                            CHANNELS 3 Zrotation Xrotation Yrotation
                            JOINT RightFinger0
                            {
                                OFFSET  -2.044660  -2.323490   3.252850
                                CHANNELS 3 Zrotation Xrotation Yrotation
                                JOINT RightFinger01
                                {
                                    OFFSET  -3.088140   0.000000   0.000000
                                    CHANNELS 3 Zrotation Xrotation Yrotation
                                    JOINT RightFinger02
                                    {
                                        OFFSET  -2.639460   0.000000   0.000000
                                        CHANNELS 3 Zrotation Xrotation Yrotation
                                        End Site
                                        {
                                            OFFSET  -2.582190   0.000000   0.000000
                                        }
                                    }
                                }
                            }
                            JOINT RightFinger1
                            {
                                OFFSET  -8.364480   0.000000   3.252850
                                CHANNELS 3 Zrotation Xrotation Yrotation
                                JOINT RightFinger11
                                {
                                    OFFSET  -4.646930   0.000000   0.000000
                                    CHANNELS 3 Zrotation Xrotation Yrotation
                                    JOINT RightFinger12
                                    {
                                        OFFSET  -2.323470   0.000000   0.000000
                                        CHANNELS 3 Zrotation Xrotation Yrotation
                                        End Site
                                        {
                                            OFFSET  -2.273050   0.000000   0.000000
                                        }
                                    }
                                }
                            }
                            JOINT RightFinger2
                            {
                                OFFSET  -8.364480   0.000000   1.078090
                                CHANNELS 3 Zrotation Xrotation Yrotation
                                JOINT RightFinger21
                                {
                                    OFFSET  -5.111620   0.000000   0.000000
                                    CHANNELS 3 Zrotation Xrotation Yrotation
                                    JOINT RightFinger22
                                    {
                                        OFFSET  -2.788160   0.000000   0.000000
                                        CHANNELS 3 Zrotation Xrotation Yrotation
                                        End Site
                                        {
                                            OFFSET  -2.727660   0.000000   0.000000
                                        }
                                    }
                                }
                            }
                            JOINT RightFinger3
                            {
                                OFFSET  -7.899780   0.000000  -1.078090
                                CHANNELS 3 Zrotation Xrotation Yrotation
                                JOINT RightFinger31
                                {
                                    OFFSET  -4.646930   0.000000   0.000000
                                    CHANNELS 3 Zrotation Xrotation Yrotation
                                    JOINT RightFinger32
                                    {
                                        OFFSET  -2.323470   0.000000   0.000000
                                        CHANNELS 3 Zrotation Xrotation Yrotation
                                        End Site
                                        {
                                            OFFSET  -2.273050   0.000000   0.000000
                                        }
                                    }
                                }
                            }
                            JOINT RightFinger4
                            {
                                OFFSET  -7.435090   0.000000  -3.252850
                                CHANNELS 3 Zrotation Xrotation Yrotation
                                JOINT RightFinger41
                                {
                                    OFFSET  -3.717550   0.000000   0.000000
                                    CHANNELS 3 Zrotation Xrotation Yrotation
                                    JOINT RightFinger42
                                    {
                                        OFFSET  -1.858770   0.000000   0.000000
                                        CHANNELS 3 Zrotation Xrotation Yrotation
                                        End Site
                                        {
                                            OFFSET  -1.818440   0.000000   0.000000
                                        }
                                    }
                                }
                            }
                        }
                    }
                }
            }
        }
    }
    JOINT LeftHip
    {
        OFFSET   9.783040   0.000000   0.000000
        CHANNELS 3 Zrotation Xrotation Yrotation
        JOINT LeftKnee
        {
            OFFSET   0.000032 -41.789100  -0.002222
            CHANNELS 3 Zrotation Xrotation Yrotation
            JOINT LeftAnkle
            {
                OFFSET   0.000087 -41.133200  -0.000135
                CHANNELS 3 Zrotation Xrotation Yrotation
                JOINT LeftToe
                {
                    OFFSET   0.000000  -6.358960  14.674500
                    CHANNELS 3 Zrotation Xrotation Yrotation
                    End Site
                    {
                        OFFSET   0.000000   0.000000   3.913200
                    }
                }
            }
        }
    }
    JOINT RightHip
    {
        OFFSET  -9.783040   0.000000   0.000000
        CHANNELS 3 Zrotation Xrotation Yrotation
        JOINT RightKnee
        {
            OFFSET   0.000047 -41.789100  -0.000896
            CHANNELS 3 Zrotation Xrotation Yrotation
            JOINT RightAnkle
            {
                OFFSET  -0.000117 -41.133300  -0.000248
                CHANNELS 3 Zrotation Xrotation Yrotation
                JOINT RightToe
                {
                    OFFSET   0.000000  -6.358970  14.674500
                    CHANNELS 3 Zrotation Xrotation Yrotation
                    End Site
                    {
                        OFFSET   0.000000   0.000000   3.913200
                    }
                }
            }
        }
    }
}
MOTION
Frames: 5
Frame Time:   0.016667
 -1.295600  89.482500 -10.409900  -1.326360  -6.001300   0.422845   1.078720   4.739520  -0.052263   2.173020   9.477210  -0.195415  -0.971656  -0.950178  -0.007904  -1.597500  -1.925060   5.416290  -9.720220   2.713590  -0.716361 -70.132700  12.250400  -8.533970  -1.532440   1.396810 -13.601200   5.534030  -7.469210   3.748940  40.378100  33.229800 -56.549000 -31.422900   0.012493   0.007691 -10.719500   0.005544   0.005421 -37.440300   1.790110  -2.345780 -30.659700   0.001104   0.004273 -21.464100   0.000699   0.001554 -28.792100  -2.095080   3.813610 -43.289100   0.000496   0.007576 -28.832900   0.002777   0.000161 -29.043300  -2.955860   5.312230 -43.787900  -0.000643  -0.003156 -29.150900   0.005212  -0.008003 -39.319300  -3.867010   4.707790 -59.218200   0.003966  -0.005875 -39.439300   0.002220  -0.003901   9.694290  -0.808971   7.196690  69.384400  -0.633746   1.957290  -1.811760 -10.767300   9.212880  -5.923430  -7.378050   4.256060 -35.428000  32.535300  68.984100  34.347400   0.000648  -0.000300  12.186600   0.004971  -0.000404  39.246500  11.405300  13.613300  33.227800  -0.000786   0.003437  23.429200  -0.000698   0.000242  37.741200   4.728860   6.089010  54.184000  -0.001195  -0.005488  36.644300   0.001611   0.002427  33.677500   3.289110   4.922030  50.729000  -0.002866   0.006651  33.785400   0.007072  -0.009163  44.241400  -2.415650  -2.463960  66.439800   0.007064   0.011385  44.248900   0.006781  -0.003980   2.712990   8.844870   0.557304   0.602203   0.119323  10.429500  -3.095520  -2.738790   2.338030  -0.000000   0.000000  -0.000000   0.481703   8.685800  -2.595600   0.205569   0.354003 -15.165600   0.010678  -2.714960  -0.283072  -0.000000   0.000000   0.000000
 -1.296920  89.482500 -10.413800  -1.326830  -6.011080   0.422852   1.080060   4.758220  -0.051052   2.175720   9.514650  -0.193466  -0.965982  -0.950172  -0.007919  -1.588340  -1.925060   5.422050  -9.727910   2.696650  -0.716272 -70.118400  12.269700  -8.534600  -1.540310   1.384710 -13.600300   5.534230  -7.469230   3.749200  40.369400  33.222500 -56.549800 -31.429500   0.012484   0.007691 -10.719500   0.005538   0.005424 -37.440500   1.790110  -2.341030 -30.660700   0.001107   0.004275 -21.464100   0.000698   0.001556 -28.791700  -2.095270   3.817190 -43.289100   0.000498   0.007574 -28.832600   0.002775   0.000158 -29.043200  -2.956020   5.313930 -43.780500  -0.000637  -0.003156 -29.150900   0.005210  -0.007999 -39.315100  -3.865630   4.706520 -59.211500   0.003962  -0.005873 -39.434800   0.002220  -0.003900   9.691010  -0.830715   7.208740  69.376200  -0.615354   1.946790  -1.811790 -10.761900   9.217250  -5.923180  -7.378400   4.248030 -35.428200  32.537600  68.986900  34.352300   0.000644  -0.000324  12.186600   0.004972  -0.000403  39.176800  11.404100  13.642500  33.173200  -0.000783   0.003437  23.379600  -0.000690   0.000234  37.711800   4.728810   6.094770  54.184200  -0.001198  -0.005496  36.634700   0.001608   0.002421  33.676300   3.289120   4.922010  50.727000  -0.002869   0.006652  33.784200   0.007070  -0.009162  44.236300  -2.415940  -2.463930  66.432200   0.007069   0.011388  44.243900   0.006785  -0.003982   2.714280   8.855180   0.557250   0.602222   0.107156  10.427700  -3.094260  -2.732520   2.337660  -0.000000   0.000000   0.000000   0.483734   8.661260  -2.595600   0.205208   0.379093 -15.165500   0.009648  -2.710750  -0.286603   0.000000   0.000000   0.000000
 -1.300320  89.482500 -10.420000  -1.327890  -6.026230   0.422864   1.082510   4.788390  -0.049280   2.180670   9.575020  -0.190711  -0.955247  -0.950132  -0.007952  -1.570410  -1.925050   5.427810  -9.740420   2.673660  -0.716144 -70.097400  12.296200  -8.535470  -1.551550   1.368530 -13.597000   5.534500  -7.469280   3.749450  40.354600  33.207900 -56.550000 -31.439000   0.012473   0.007688 -10.719500   0.005527   0.005431 -37.440600   1.790120  -2.336270 -30.663000   0.001113   0.004280 -21.464100   0.000696   0.001563 -28.791300  -2.095460   3.820770 -43.289100   0.000502   0.007568 -28.832400   0.002769   0.000152 -29.043100  -2.956180   5.315640 -43.770200  -0.000622  -0.003153 -29.150900   0.005205  -0.007987 -39.308200  -3.862160   4.703090 -59.200300   0.003951  -0.005868 -39.427400   0.002222  -0.003896   9.684440  -0.864827   7.228880  69.365100  -0.580341   1.936290  -1.811780 -10.756400   9.221620  -5.918370  -7.378780   4.236980 -35.421800  32.541700  68.992500  34.360200   0.000637  -0.000348  12.186700   0.004978  -0.000397  39.080000  11.402300  13.683000  33.097400  -0.000770   0.003439  23.310700  -0.000671   0.000214  37.670300   4.728750   6.102880  54.184500  -0.001202  -0.005511  36.621200   0.001597   0.002405  33.675100   3.289140   4.921960  50.725100  -0.002874   0.006658  33.782900   0.007066  -0.009159  44.231200  -2.416330  -2.463860  66.424700   0.007083   0.011398  44.238900   0.006792  -0.003989   2.717770   8.871930   0.557205   0.602276   0.087156  10.423400  -3.092280  -2.722400   2.336570   0.000000   0.000000   0.000000   0.488827   8.636730  -2.595590   0.203822   0.414219 -15.165300   0.007969  -2.706550  -0.293193   0.000000   0.000000   0.000000
 -1.305670  89.482500 -10.424200  -1.329040  -6.036310   0.426013   1.084970   4.810660  -0.048443   2.185660   9.619540  -0.189679  -0.944267  -0.945025  -0.007998  -1.552140  -1.914720   5.423530  -9.749770   2.667340  -0.716080 -70.084100  12.305300  -8.545680  -1.556710   1.363800 -13.588200   5.534580  -7.469330   3.749390  40.337100  33.188300 -56.544000 -31.443200   0.012469   0.007679 -10.720900   0.005517   0.005436 -37.443400   1.794610  -2.341890 -30.666000   0.001121   0.004283 -21.466100   0.000696   0.001575 -28.793000  -2.095430   3.814880 -43.292700   0.000507   0.007555 -28.834000   0.002761   0.000141 -29.041900  -2.954570   5.309730 -43.766500  -0.000599  -0.003147 -29.149900   0.005198  -0.007969 -39.302100  -3.856130   4.697040 -59.190500   0.003934  -0.005862 -39.420800   0.002222  -0.003885   9.677180  -0.887308   7.244890  69.361500  -0.541161   1.942090  -1.805890 -10.757200   9.211290  -5.905890  -7.378130   4.232940 -35.402800  32.532600  69.008700  34.367300   0.000631  -0.000333  12.186600   0.004996  -0.000380  39.050000  11.401700  13.695500  33.073900  -0.000740   0.003446  23.289300  -0.000645   0.000189  37.661000   4.728760   6.104680  54.184400  -0.001204  -0.005525  36.618200   0.001578   0.002382  33.684300   3.289180   4.921910  50.739200  -0.002876   0.006672  33.792400   0.007061  -0.009154  44.240800  -2.416500  -2.463780  66.438900   0.007106   0.011417  44.248300   0.006805  -0.003999   2.723560   8.883880   0.558390   0.602363   0.073312  10.414400  -3.090870  -2.715910   2.334590  -0.000000   0.000000  -0.000000   0.496228   8.637260  -2.593900   0.200081   0.429273 -15.165200   0.007117  -2.709930  -0.300795   0.000000   0.000000   0.000000
 -1.312150  89.482500 -10.427500  -1.330170  -6.044340   0.431368   1.087600   4.831220  -0.047777   2.191020   9.660640  -0.188972  -0.931165  -0.932876  -0.008051  -1.530850  -1.890090   5.407660  -9.758700   2.665200  -0.716053 -70.073800  12.307000  -8.560560  -1.559710   1.363150 -13.581900   5.534550  -7.469360   3.748920  40.328700  33.172200 -56.544000 -31.445800   0.012467   0.007663 -10.722900   0.005504   0.005446 -37.448800   1.802610  -2.351850 -30.670100   0.001133   0.004288 -21.469800   0.000697   0.001592 -28.796800  -2.095100   3.805020 -43.299600   0.000513   0.007538 -28.837600   0.002750   0.000127 -29.040800  -2.952900   5.300670 -43.764900  -0.000570  -0.003139 -29.148500   0.005189  -0.007944 -39.297000  -3.850220   4.690490 -59.182200   0.003911  -0.005854 -39.415300   0.002223  -0.003871   9.667810  -0.907927   7.261310  69.359500  -0.500779   1.953810  -1.791630 -10.761100   9.194260  -5.887320  -7.373330   4.231880 -35.386800  32.524500  69.028100  34.371500   0.000624  -0.000317  12.185800   0.005018  -0.000362  39.030600  11.401000  13.703600  33.058600  -0.000702   0.003453  23.275500  -0.000611   0.000149  37.644500   4.728760   6.107870  54.184000  -0.001207  -0.005544  36.612700   0.001551   0.002352  33.693500   3.289230   4.921870  50.753300  -0.002882   0.006692  33.801800   0.007057  -0.009147  44.250300  -2.416560  -2.463730  66.453000   0.007138   0.011441  44.257700   0.006820  -0.004013   2.730230   8.896440   0.559576   0.602488   0.056660  10.408000  -3.089710  -2.708040   2.332290  -0.000000   0.000000   0.000000   0.503520   8.640880  -2.591120   0.197365   0.434292 -15.165100   0.005479  -2.713320  -0.307551   0.000000   0.000000  -0.000000
